<svg width="389.1" height="100.001" viewBox="0 0 389.1 100.001" xmlns="http://www.w3.org/2000/svg"><g id="svgGroup" stroke-linecap="round" fill-rule="evenodd" font-size="9pt" stroke="#000" stroke-width="0.25mm" fill="#000" style="stroke:#000;stroke-width:0.25mm;fill:#000"><path d="M 362.5 37.3 L 354.5 75 L 340.1 75 L 353.7 11.4 L 368.5 9.4 L 363.6 32.5 L 364.4 32.5 A 10.886 10.886 0 0 0 370.766 30.433 A 13.964 13.964 0 0 0 371.6 29.8 Q 374.9 27.1 376.75 23.05 A 21.008 21.008 0 0 0 378.22 18.665 A 17.21 17.21 0 0 0 378.6 15.1 A 12.589 12.589 0 0 0 378.129 11.574 A 9.85 9.85 0 0 0 375.85 7.55 A 8.672 8.672 0 0 0 372.024 5.207 Q 370.095 4.6 367.6 4.6 A 38.347 38.347 0 0 0 360.446 5.237 A 28.874 28.874 0 0 0 353.4 7.5 Q 347.3 10.4 343.95 15.9 A 22.755 22.755 0 0 0 340.927 24.408 A 29.824 29.824 0 0 0 340.6 28.9 Q 340.6 32.6 341.3 34.05 A 50.196 50.196 0 0 1 341.464 34.393 Q 341.893 35.299 341.979 35.592 A 0.434 0.434 0 0 1 342 35.7 A 20.861 20.861 0 0 1 339.18 35.522 Q 337.725 35.323 336.542 34.902 A 8.223 8.223 0 0 1 333.95 33.45 A 6.745 6.745 0 0 1 332.026 30.636 Q 331.596 29.501 331.42 28.083 A 17.01 17.01 0 0 1 331.3 26 A 16.53 16.53 0 0 1 333.25 18.33 Q 334.499 15.914 336.55 13.55 Q 341.8 7.5 350 3.75 A 41.466 41.466 0 0 1 360.25 0.528 A 36.323 36.323 0 0 1 366.4 0 Q 373.9 0 379 2.2 Q 384.1 4.4 386.6 8.05 Q 389.1 11.7 389.1 16 A 16.38 16.38 0 0 1 387.791 22.316 A 21.727 21.727 0 0 1 386.2 25.4 A 22.931 22.931 0 0 1 378.611 32.911 A 26.592 26.592 0 0 1 378.3 33.1 Q 381.223 33.946 382.814 35.65 A 6.726 6.726 0 0 1 383.65 36.75 A 10.163 10.163 0 0 1 384.859 39.812 Q 385.155 41.119 385.194 42.632 A 18.07 18.07 0 0 1 385.2 43.1 A 27.086 27.086 0 0 1 384.927 46.862 A 33.352 33.352 0 0 1 384.5 49.25 Q 383.8 52.5 382.5 57.3 Q 381.7 60.4 381 63.4 A 34.341 34.341 0 0 0 380.602 65.345 Q 380.3 67.088 380.3 68.4 A 8.613 8.613 0 0 0 380.632 70.83 A 7.46 7.46 0 0 0 381.35 72.5 A 6.041 6.041 0 0 0 382.666 74.093 A 5.388 5.388 0 0 0 384.2 75 A 64.075 64.075 0 0 1 380.612 75.897 Q 377.097 76.66 374.563 76.698 A 17.522 17.522 0 0 1 374.3 76.7 Q 367.516 76.7 366.632 71.633 A 9.505 9.505 0 0 1 366.5 70 A 18.066 18.066 0 0 1 366.624 67.951 Q 366.744 66.903 366.98 65.739 A 33.015 33.015 0 0 1 367.15 64.95 Q 367.8 62.1 369 57.6 Q 369.963 54.369 370.594 51.799 A 70.71 70.71 0 0 0 371.1 49.6 A 35.794 35.794 0 0 0 371.579 46.847 Q 371.8 45.163 371.8 43.7 A 11.218 11.218 0 0 0 371.533 41.134 Q 370.711 37.651 367.361 37.033 A 8.619 8.619 0 0 0 365.8 36.9 A 14.003 14.003 0 0 0 363.187 37.154 A 16.115 16.115 0 0 0 362.5 37.3 Z M 333.1 1.4 L 317.4 75 L 303 75 L 310.7 38.7 Q 307.325 37.15 304.45 36.348 A 29.369 29.369 0 0 0 303.9 36.2 A 38.716 38.716 0 0 0 299.025 35.282 A 44.65 44.65 0 0 0 297.3 35.1 Q 291.6 47.4 287.95 60.25 A 137.366 137.366 0 0 0 286.065 67.603 Q 284.486 74.619 284.32 79.643 A 34.949 34.949 0 0 0 284.3 80.8 Q 284.3 84.6 285.7 86.4 Q 282.39 86.4 279.801 85.92 A 22.054 22.054 0 0 1 279.2 85.8 A 8.777 8.777 0 0 1 274.683 83.258 A 10.903 10.903 0 0 1 274.35 82.9 A 7.067 7.067 0 0 1 272.995 80.541 Q 272.3 78.594 272.3 75.8 Q 272.3 69.748 275.605 59.942 A 118.914 118.914 0 0 1 276.35 57.8 A 134.137 134.137 0 0 1 283.859 40.794 A 154.852 154.852 0 0 1 287 35.1 A 40.254 40.254 0 0 0 284.08 35.376 Q 281.094 35.775 279.1 36.6 A 8.072 8.072 0 0 0 277.274 37.631 A 5.762 5.762 0 0 0 275.3 40.3 A 0.42 0.42 0 0 1 275.547 40.392 Q 275.804 40.58 276.081 41.152 A 5.968 5.968 0 0 1 276.15 41.3 Q 276.6 42.3 276.6 43.4 A 3.16 3.16 0 0 1 275.503 45.867 A 4.321 4.321 0 0 1 275 46.25 A 6.174 6.174 0 0 1 272.915 47.106 Q 272.087 47.288 271.128 47.3 A 10.826 10.826 0 0 1 271 47.3 Q 268.2 47.3 266.5 45.8 A 4.861 4.861 0 0 1 264.974 43.161 A 7.451 7.451 0 0 1 264.8 41.5 A 8.441 8.441 0 0 1 266.516 36.417 A 11.499 11.499 0 0 1 267.45 35.3 Q 270.1 32.5 274.8 30.85 A 29.115 29.115 0 0 1 281.399 29.395 A 36.085 36.085 0 0 1 285.2 29.2 A 37.877 37.877 0 0 1 286.896 29.242 Q 288.45 29.312 290.4 29.5 A 120.553 120.553 0 0 1 298.296 18.356 Q 302.602 12.991 307.143 8.803 A 73.64 73.64 0 0 1 307.75 8.25 A 43.691 43.691 0 0 1 313.108 4.079 Q 319.364 0 325.2 0 A 27.145 27.145 0 0 1 328.43 0.181 Q 330.066 0.378 331.442 0.787 A 13.122 13.122 0 0 1 333.1 1.4 Z M 0.8 57.1 L 7.6 25 L 22 25 L 14.8 59 A 15.985 15.985 0 0 0 14.56 60.603 A 12.514 12.514 0 0 0 14.5 61.8 A 8.255 8.255 0 0 0 14.619 63.271 Q 15.081 65.809 17.335 65.897 A 4.211 4.211 0 0 0 17.5 65.9 A 5.95 5.95 0 0 0 21.837 64.053 A 8.343 8.343 0 0 0 22.3 63.55 A 13.215 13.215 0 0 0 23.896 61.161 Q 24.535 59.955 25.053 58.488 A 26.484 26.484 0 0 0 25.5 57.1 L 32.3 25 L 46.7 25 L 39.5 59 Q 39.1 60.5 39.1 62.2 Q 39.1 63.36 39.42 64.133 A 2.476 2.476 0 0 0 40.05 65.05 A 2.759 2.759 0 0 0 40.916 65.56 Q 41.719 65.866 42.928 65.897 A 10.79 10.79 0 0 0 43.2 65.9 A 5.961 5.961 0 0 0 47.383 64.2 A 8.492 8.492 0 0 0 48.05 63.5 Q 49.828 61.419 50.966 58.135 A 25.749 25.749 0 0 0 51.3 57.1 L 55.5 57.1 Q 51.8 67.9 46.35 71.75 Q 40.9 75.6 35.4 75.6 A 12.513 12.513 0 0 1 32.535 75.29 A 8.545 8.545 0 0 1 28.55 73.2 A 8.854 8.854 0 0 1 26.442 70.058 Q 25.738 68.34 25.5 66.1 A 31.849 31.849 0 0 1 23.341 69.196 Q 22.135 70.711 20.887 71.812 A 13.344 13.344 0 0 1 18.35 73.6 A 16.972 16.972 0 0 1 13.604 75.319 A 15.128 15.128 0 0 1 10.7 75.6 A 12.469 12.469 0 0 1 7.169 75.124 A 9.634 9.634 0 0 1 2.95 72.6 A 9.385 9.385 0 0 1 0.784 68.99 Q 0.282 67.519 0.101 65.721 A 21.244 21.244 0 0 1 0 63.6 Q 0 61.214 0.729 57.462 A 66.029 66.029 0 0 1 0.8 57.1 Z M 164.9 75.4 L 166.1 70.1 A 18.104 18.104 0 0 1 161.477 73.762 A 15.218 15.218 0 0 1 154.1 75.6 A 13.692 13.692 0 0 1 149.024 74.685 A 12.609 12.609 0 0 1 144.6 71.7 Q 141.735 68.76 141.03 63.319 A 29.775 29.775 0 0 1 140.8 59.5 A 41.743 41.743 0 0 1 141.938 50.019 A 53.508 53.508 0 0 1 143.75 43.95 A 36.675 36.675 0 0 1 149.806 33.132 A 34.348 34.348 0 0 1 152.55 30.15 Q 158.4 24.5 166.5 24.5 A 19.255 19.255 0 0 1 168.64 24.611 Q 170.929 24.868 172.325 25.72 A 5.271 5.271 0 0 1 172.6 25.9 A 5.04 5.04 0 0 1 173.819 27.077 A 4.208 4.208 0 0 1 174.6 29.6 L 174.6 30.2 L 175.7 25 L 190.1 25 L 180.2 71.4 A 20.444 20.444 0 0 0 184.283 69.549 A 15.893 15.893 0 0 0 187.9 66.6 A 17.118 17.118 0 0 0 189.948 63.764 Q 191.55 61.038 192.8 57.1 L 197 57.1 A 44.142 44.142 0 0 1 195.127 62.199 Q 193.995 64.748 192.638 66.736 A 18.967 18.967 0 0 1 189.7 70.15 Q 185.1 74.3 179.3 75.8 L 177.8 83 A 38.332 38.332 0 0 1 176.446 87.978 Q 174.422 93.727 170.9 96.35 Q 166 100 159.8 100 A 15.192 15.192 0 0 1 156.067 99.564 A 11.373 11.373 0 0 1 151.8 97.5 A 8.113 8.113 0 0 1 148.732 92.119 A 12.035 12.035 0 0 1 148.6 90.3 A 11.353 11.353 0 0 1 149.645 85.378 Q 150.721 83.108 152.904 81.378 A 14.219 14.219 0 0 1 153.2 81.15 Q 157.342 78.044 163.51 75.87 A 57.374 57.374 0 0 1 164.9 75.4 Z M 122 29.6 L 122 30.3 L 123.1 25 L 137.5 25 L 130.3 59 Q 129.9 60.5 129.9 62.2 A 6.512 6.512 0 0 0 130.096 63.876 Q 130.669 66.019 132.91 66.412 A 6.322 6.322 0 0 0 134 66.5 A 5.619 5.619 0 0 0 137.846 64.978 A 8.486 8.486 0 0 0 138.85 63.9 A 15.698 15.698 0 0 0 140.585 61.111 Q 141.271 59.721 141.81 58.055 A 28.82 28.82 0 0 0 142.1 57.1 L 146.3 57.1 Q 142.6 67.9 137.15 71.75 Q 131.7 75.6 126.2 75.6 Q 122 75.6 119.45 73.25 Q 117.11 71.093 116.496 67.126 A 17.113 17.113 0 0 1 116.4 66.4 A 30.712 30.712 0 0 1 112.932 70.522 A 24.943 24.943 0 0 1 109.95 73.05 A 13.547 13.547 0 0 1 103.435 75.495 A 17.382 17.382 0 0 1 101.5 75.6 A 13.692 13.692 0 0 1 96.424 74.685 A 12.609 12.609 0 0 1 92 71.7 Q 89.135 68.76 88.43 63.319 A 29.775 29.775 0 0 1 88.2 59.5 A 41.743 41.743 0 0 1 89.338 50.019 A 53.508 53.508 0 0 1 91.15 43.95 A 36.675 36.675 0 0 1 97.206 33.132 A 34.348 34.348 0 0 1 99.95 30.15 Q 105.8 24.5 113.9 24.5 A 19.255 19.255 0 0 1 116.04 24.611 Q 118.329 24.868 119.725 25.72 A 5.271 5.271 0 0 1 120 25.9 A 5.04 5.04 0 0 1 121.219 27.077 A 4.208 4.208 0 0 1 122 29.6 Z M 65.7 23.9 L 80.5 21.9 Q 81 34.7 82.2 49.6 A 260.452 260.452 0 0 1 82.419 52.394 Q 82.7 56.275 82.7 58.3 A 21.814 21.814 0 0 1 82.648 59.85 Q 82.597 60.575 82.493 61.197 A 9.734 9.734 0 0 1 82.3 62.1 A 64.999 64.999 0 0 0 85.023 60.452 Q 87.781 58.682 89.5 57.1 L 93.7 57.1 Q 87.3 64.5 78.4 69.6 A 17.165 17.165 0 0 1 71.514 74.058 A 20.036 20.036 0 0 1 71.25 74.15 Q 67 75.6 62.7 75.6 Q 57.9 75.6 54.6 73.75 A 13.496 13.496 0 0 1 51.668 71.569 A 11.2 11.2 0 0 1 49.7 68.95 Q 48.1 66 48.1 62.8 A 11.838 11.838 0 0 1 48.482 59.735 A 9.646 9.646 0 0 1 49.65 57.05 A 11.095 11.095 0 0 1 51.217 55.079 A 8.517 8.517 0 0 1 53.4 53.5 Q 57.3 46.5 60.2 39.35 A 187.992 187.992 0 0 0 63.708 29.964 A 224.875 224.875 0 0 0 65.7 23.9 Z M 192.8 57.1 A 66.029 66.029 0 0 0 192.729 57.462 Q 192 61.214 192 63.6 A 21.244 21.244 0 0 0 192.101 65.721 Q 192.282 67.519 192.784 68.99 A 9.385 9.385 0 0 0 194.95 72.6 A 9.634 9.634 0 0 0 199.169 75.124 A 12.469 12.469 0 0 0 202.7 75.6 A 18.299 18.299 0 0 0 209.414 74.278 A 25.497 25.497 0 0 0 214.2 71.75 Q 218.369 68.983 221.453 62.626 A 49.254 49.254 0 0 0 223.7 57.1 L 219.5 57.1 A 16.871 16.871 0 0 1 218.676 59.396 A 13.046 13.046 0 0 1 215.9 63.45 A 10.064 10.064 0 0 1 214.298 64.742 A 6.923 6.923 0 0 1 210.5 65.9 A 10.79 10.79 0 0 1 210.228 65.897 Q 209.019 65.866 208.216 65.56 A 2.759 2.759 0 0 1 207.35 65.05 A 2.476 2.476 0 0 1 206.72 64.133 Q 206.4 63.36 206.4 62.2 Q 206.4 60.5 206.8 59 L 214 25 L 199.6 25 L 192.8 57.1 Z M 223.1 75 L 224.9 67.1 L 259.9 67.1 L 258.2 75 L 223.1 75 Z M 168.6 58.1 L 173.7 34.4 A 3.216 3.216 0 0 0 173.426 33.13 Q 173.239 32.692 172.924 32.247 A 6.351 6.351 0 0 0 172.7 31.95 A 3.156 3.156 0 0 0 171.073 30.891 Q 170.543 30.736 169.902 30.707 A 6.663 6.663 0 0 0 169.6 30.7 Q 166.166 30.7 163.321 34.128 A 17.036 17.036 0 0 0 162.4 35.35 A 32.611 32.611 0 0 0 159.243 41.183 A 43.367 43.367 0 0 0 157.4 46.55 Q 155.969 51.757 155.676 55.984 A 30.572 30.572 0 0 0 155.6 58.1 Q 155.6 62.834 156.9 64.341 A 2.401 2.401 0 0 0 157.05 64.5 Q 158.5 65.9 160.6 65.9 Q 162.541 65.9 164.552 64.405 A 12.069 12.069 0 0 0 165.3 63.8 Q 167.7 61.7 168.6 58.1 Z M 116.3 57.1 L 121.1 34.5 A 3.6 3.6 0 0 0 120.709 32.895 A 5.189 5.189 0 0 0 120.1 31.95 A 3.156 3.156 0 0 0 118.473 30.891 Q 117.943 30.736 117.302 30.707 A 6.663 6.663 0 0 0 117 30.7 Q 113.566 30.7 110.721 34.128 A 17.036 17.036 0 0 0 109.8 35.35 A 32.611 32.611 0 0 0 106.643 41.183 A 43.367 43.367 0 0 0 104.8 46.55 Q 103.369 51.757 103.076 55.984 A 30.572 30.572 0 0 0 103 58.1 Q 103 62.834 104.3 64.341 A 2.401 2.401 0 0 0 104.45 64.5 Q 105.9 65.9 108 65.9 A 5.814 5.814 0 0 0 110.642 65.237 Q 111.476 64.816 112.303 64.129 A 12.146 12.146 0 0 0 112.95 63.55 A 10.833 10.833 0 0 0 115.313 60.143 A 15.414 15.414 0 0 0 116.3 57.1 Z M 59.5 67.7 A 10.266 10.266 0 0 0 62.607 67.249 A 8.517 8.517 0 0 0 65.7 65.5 Q 68.2 63.3 68.2 58.4 Q 68.2 55.4 67.6 50 A 4983.323 4983.323 0 0 1 67.196 45.372 Q 66.534 37.747 66.3 34.7 Q 63.9 42.6 58.2 53.6 A 5.124 5.124 0 0 1 59.388 54.434 A 3.544 3.544 0 0 1 60.5 57.1 Q 60.5 59 59.25 60.5 A 4.23 4.23 0 0 1 57.96 61.564 A 3.958 3.958 0 0 1 56.1 62 A 5.203 5.203 0 0 1 55.157 61.922 Q 54.658 61.829 54.283 61.629 A 1.966 1.966 0 0 1 53.4 60.7 A 14.258 14.258 0 0 0 53.515 62.575 Q 53.808 64.778 54.85 66 A 4.44 4.44 0 0 0 56.801 67.298 Q 57.944 67.7 59.5 67.7 Z M 311.6 34.3 L 317.4 7.1 A 18.422 18.422 0 0 0 314.264 9.264 Q 311.44 11.637 308.473 15.619 A 58.55 58.55 0 0 0 308.45 15.65 Q 304.118 21.472 300.004 29.594 A 137.686 137.686 0 0 0 299.4 30.8 Q 306.6 32.2 311.6 34.3 Z M 205.892 18.768 A 7.792 7.792 0 0 0 209.5 19.6 A 9.433 9.433 0 0 0 209.513 19.6 A 7.787 7.787 0 0 0 215.15 17.3 A 9.076 9.076 0 0 0 215.259 17.192 A 7.527 7.527 0 0 0 217.5 11.7 A 9.208 9.208 0 0 0 217.499 11.597 A 7.695 7.695 0 0 0 215.15 6.05 A 9.397 9.397 0 0 0 215.076 5.977 A 7.693 7.693 0 0 0 209.5 3.7 A 9.171 9.171 0 0 0 209.346 3.702 A 7.525 7.525 0 0 0 203.9 6.05 A 9.359 9.359 0 0 0 203.891 6.059 A 7.787 7.787 0 0 0 201.6 11.7 A 9.402 9.402 0 0 0 201.601 11.803 A 7.609 7.609 0 0 0 203.9 17.3 A 7.931 7.931 0 0 0 205.892 18.768 Z M 163.3 83.3 L 163.9 80.4 A 36.376 36.376 0 0 0 160.323 81.916 Q 154.1 84.996 154.1 88.9 Q 154.1 90.2 155 91.2 A 2.948 2.948 0 0 0 156.699 92.13 A 4.335 4.335 0 0 0 157.5 92.2 Q 159.155 92.2 160.716 90.02 A 10.961 10.961 0 0 0 160.8 89.9 Q 162.4 87.6 163.3 83.3 Z" vector-effect="non-scaling-stroke"/></g></svg>